# xmcd
#
# Track frame offsets: 
#        150
#        12187
#        28517
#        43815
#        60007
#        75730
#        94792
#        107587
#        124275
#        141960
#
# Disc length: 2368 seconds
#
# Revision: 3
# Processed by: cddbd v1.5.2PL0 Copyright (c) Steve Scherf et al.
# Submitted via: ExactAudioCopy v0.99pb4
#
DISCID=78093e0a
DTITLE=Paul Brandt - Outside The Frame
DYEAR=1997
DGENRE=Country
TTITLE0=Chain Reaction
TTITLE1=A Little In Love
TTITLE2=What's Come Over You
TTITLE3=One
TTITLE4=I Believe You
TTITLE5=Yeah
TTITLE6=We Are The One
TTITLE7=Start Forever Over Again
TTITLE8=Dry Eye
TTITLE9=Outside The Frame
EXTD=YEAR: 1997
EXTT0=
EXTT1=
EXTT2=
EXTT3=
EXTT4=
EXTT5=
EXTT6=
EXTT7=
EXTT8=
EXTT9=
PLAYORDER=
